<?xml version="1.0" encoding="UTF-8" standalone="no"?>
<svg
   xmlns:dc="http://purl.org/dc/elements/1.1/"
   xmlns:cc="http://creativecommons.org/ns#"
   xmlns:rdf="http://www.w3.org/1999/02/22-rdf-syntax-ns#"
   xmlns:svg="http://www.w3.org/2000/svg"
   xmlns="http://www.w3.org/2000/svg"
   xmlns:sodipodi="http://sodipodi.sourceforge.net/DTD/sodipodi-0.dtd"
   xmlns:inkscape="http://www.inkscape.org/namespaces/inkscape"
   version="1.1"
   viewBox="0.0 0.0 348.0 348.0"
   fill="none"
   stroke="none"
   stroke-linecap="square"
   stroke-miterlimit="10"
   id="svg3336"
   inkscape:version="0.91 r13725"
   sodipodi:docname="WhosOnFirstComponent.svg">
  <metadata
     id="metadata3417">
    <rdf:RDF>
      <cc:Work
         rdf:about="">
        <dc:format>image/svg+xml</dc:format>
        <dc:type
           rdf:resource="http://purl.org/dc/dcmitype/StillImage" />
      </cc:Work>
    </rdf:RDF>
  </metadata>
  <defs
     id="defs3415" />
  <sodipodi:namedview
     pagecolor="#ffffff"
     bordercolor="#666666"
     borderopacity="1"
     objecttolerance="10"
     gridtolerance="10"
     guidetolerance="10"
     inkscape:pageopacity="0"
     inkscape:pageshadow="2"
     inkscape:window-width="1920"
     inkscape:window-height="1018"
     id="namedview3413"
     showgrid="false"
     inkscape:zoom="2.4396552"
     inkscape:cx="174"
     inkscape:cy="174"
     inkscape:window-x="-8"
     inkscape:window-y="-8"
     inkscape:window-maximized="1"
     inkscape:current-layer="svg3336" />
  <clipPath
     id="p.0">
    <path
       d="m0 0l348.0 0l0 348.0l-348.0 0l0 -348.0z"
       clip-rule="nonzero"
       id="path3339" />
  </clipPath>
  <g
     clip-path="url(#p.0)"
     id="g3341">
    <path
       fill="#000000"
       fill-opacity="0.0"
       d="m0 0l348.0 0l0 348.0l-348.0 0z"
       fill-rule="nonzero"
       id="path3343" />
    <path
       fill="#ffffff"
       d="m-6.0 0l348.0 0l0 347.9685l-348.0 0z"
       fill-rule="nonzero"
       id="path3345" />
    <path
       fill="#000000"
       fill-opacity="0.0"
       d="m5.07874 5.7758217l336.9134 0l0 337.6693l-336.9134 0z"
       fill-rule="nonzero"
       id="path3347" />
    <path
       stroke="#000000"
       stroke-width="2.0"
       stroke-linejoin="round"
       stroke-linecap="butt"
       d="m5.07874 5.7758217l336.9134 0l0 337.6693l-336.9134 0z"
       fill-rule="nonzero"
       id="path3349" />
    <path
       fill="#ffffff"
       d="m282.73444 40.553925l0 0c0 -8.375591 6.966034 -15.165352 15.5590515 -15.165352l0 0c4.126526 0 8.084015 1.5977726 11.001923 4.441828c2.9178772 2.844057 4.557129 6.7014217 4.557129 10.723524l0 0c0 8.375595 -6.9660034 15.165356 -15.5590515 15.165356l0 0c-8.593018 0 -15.5590515 -6.7897606 -15.5590515 -15.165356z"
       fill-rule="nonzero"
       id="path3351" />
    <path
       stroke="#000000"
       stroke-width="2.0"
       stroke-linejoin="round"
       stroke-linecap="butt"
       d="m282.73444 40.553925l0 0c0 -8.375591 6.966034 -15.165352 15.5590515 -15.165352l0 0c4.126526 0 8.084015 1.5977726 11.001923 4.441828c2.9178772 2.844057 4.557129 6.7014217 4.557129 10.723524l0 0c0 8.375595 -6.9660034 15.165356 -15.5590515 15.165356l0 0c-8.593018 0 -15.5590515 -6.7897606 -15.5590515 -15.165356z"
       fill-rule="nonzero"
       id="path3353" />
    <path
       fill="#000000"
       d="m34.771652 25.389738l232.40947 0l0 67.55905l-232.40947 0z"
       fill-rule="nonzero"
       id="path3355" />
    <path
       stroke="#000000"
       stroke-width="2.0"
       stroke-linejoin="round"
       stroke-linecap="butt"
       d="m34.771652 25.389738l232.40947 0l0 67.55905l-232.40947 0z"
       fill-rule="nonzero"
       id="path3357" />
    <path
       fill="#000000"
       fill-opacity="0.0"
       d="m34.771652 202.31795l106.645676 0l0 44.81891l-106.645676 0z"
       fill-rule="nonzero"
       id="path3361" />
    <path
       stroke="#000000"
       stroke-width="1.0"
       stroke-linejoin="round"
       stroke-linecap="butt"
       d="m34.771652 202.31795l106.645676 0l0 44.81891l-106.645676 0z"
       fill-rule="nonzero"
       id="path3363" />
    <path
       fill="#000000"
       fill-opacity="0.0"
       d="m34.771652 125.22639l106.645676 0l0 44.8189l-106.645676 0z"
       fill-rule="nonzero"
       id="path3367" />
    <path
       stroke="#000000"
       stroke-width="1.0"
       stroke-linejoin="round"
       stroke-linecap="butt"
       d="m34.771652 125.22639l106.645676 0l0 44.8189l-106.645676 0z"
       fill-rule="nonzero"
       id="path3369" />
    <path
       fill="#000000"
       fill-opacity="0.0"
       d="m34.771652 270.60397l106.645676 0l0 44.81891l-106.645676 0z"
       fill-rule="nonzero"
       id="path3373" />
    <path
       stroke="#000000"
       stroke-width="1.0"
       stroke-linejoin="round"
       stroke-linecap="butt"
       d="m34.771652 270.60397l106.645676 0l0 44.81891l-106.645676 0z"
       fill-rule="nonzero"
       id="path3375" />
    <path
       fill="#000000"
       fill-opacity="0.0"
       d="m157.40683 202.31795l106.64566 0l0 44.81891l-106.64566 0z"
       fill-rule="nonzero"
       id="path3379" />
    <path
       stroke="#000000"
       stroke-width="1.0"
       stroke-linejoin="round"
       stroke-linecap="butt"
       d="m157.40683 202.31795l106.64566 0l0 44.81891l-106.64566 0z"
       fill-rule="nonzero"
       id="path3381" />
    <path
       fill="#000000"
       fill-opacity="0.0"
       d="m157.40683 125.22639l106.64566 0l0 44.8189l-106.64566 0z"
       fill-rule="nonzero"
       id="path3385" />
    <path
       stroke="#000000"
       stroke-width="1.0"
       stroke-linejoin="round"
       stroke-linecap="butt"
       d="m157.40683 125.22639l106.64566 0l0 44.8189l-106.64566 0z"
       fill-rule="nonzero"
       id="path3387" />
    <path
       fill="#000000"
       fill-opacity="0.0"
       d="m157.40683 270.60397l106.64566 0l0 44.81891l-106.64566 0z"
       fill-rule="nonzero"
       id="path3391" />
    <path
       stroke="#000000"
       stroke-width="1.0"
       stroke-linejoin="round"
       stroke-linecap="butt"
       d="m157.40683 270.60397l106.64566 0l0 44.81891l-106.64566 0z"
       fill-rule="nonzero"
       id="path3393" />
    <path
       fill="#000000"
       d="m277.46194 106.3832l52.661407 0l0 209.03937l-52.661407 0z"
       fill-rule="nonzero"
       id="path3397" />
    <path
       stroke="#000000"
       stroke-width="2.0"
       stroke-linejoin="round"
       stroke-linecap="butt"
       d="m277.46194 106.3832l52.661407 0l0 209.03937l-52.661407 0z"
       fill-rule="nonzero"
       id="path3399" />
    <path
       fill="#ffffff"
       d="m290.06036 245.11285l27.46457 0l0 16.472443l-27.46457 0z"
       fill-rule="nonzero"
       id="path3401" />
    <path
       stroke="#000000"
       stroke-width="2.0"
       stroke-linejoin="round"
       stroke-linecap="butt"
       d="m290.06036 245.11285l27.46457 0l0 16.472443l-27.46457 0z"
       fill-rule="nonzero"
       id="path3403" />
    <path
       fill="#ffffff"
       d="m290.06036 208.9029l27.46457 0l0 16.472427l-27.46457 0z"
       fill-rule="nonzero"
       id="path3405" />
    <path
       stroke="#000000"
       stroke-width="2.0"
       stroke-linejoin="round"
       stroke-linecap="butt"
       d="m290.06036 208.9029l27.46457 0l0 16.472427l-27.46457 0z"
       fill-rule="nonzero"
       id="path3407" />
    <path
       fill="#ffffff"
       d="m290.06036 281.32285l27.46457 0l0 16.472443l-27.46457 0z"
       fill-rule="nonzero"
       id="path3409" />
    <path
       stroke="#000000"
       stroke-width="2.0"
       stroke-linejoin="round"
       stroke-linecap="butt"
       d="m290.06036 281.32285l27.46457 0l0 16.472443l-27.46457 0z"
       fill-rule="nonzero"
       id="path3411" />
  </g>
  <g
     transform="translate(189.83039,7.477032)"
     style="font-style:normal;font-weight:normal;font-size:40px;line-height:125%;font-family:sans-serif;letter-spacing:0px;word-spacing:0px;fill:#000000;fill-opacity:1;stroke:none;stroke-width:1px;stroke-linecap:butt;stroke-linejoin:miter;stroke-opacity:1"
     id="flowRoot3419">
    <path
       d="m -124.96582,69.144541 -7.61719,0 0,-28.535156 7.61719,0 0,2.094727 -5.06836,0 0,24.345703 5.06836,0 0,2.094726 z"
       style="font-size:30px;fill:#ffffff"
       id="path3666" />
    <path
       d="m -101.30859,61.791026 q -1.78711,0.820312 -3.91114,1.435547 -2.10937,0.600586 -4.08691,0.600586 -2.54883,0 -4.67285,-0.703125 -2.12403,-0.703125 -3.61817,-2.109375 -1.50879,-1.420899 -2.3291,-3.544922 -0.82031,-2.138672 -0.82031,-4.995117 0,-5.229493 3.04687,-8.247071 3.06153,-3.032226 8.39356,-3.032226 1.86035,0 3.79394,0.454101 1.94825,0.439453 4.18946,1.508789 l 0,3.442383 -0.26367,0 q -0.45411,-0.351562 -1.31836,-0.922851 -0.86426,-0.571289 -1.69922,-0.952149 -1.01074,-0.454101 -2.29981,-0.74707 -1.27441,-0.307617 -2.90039,-0.307617 -3.66211,0 -5.80078,2.358398 -2.12402,2.34375 -2.12402,6.357422 0,4.233398 2.22656,6.591797 2.22656,2.34375 6.06445,2.34375 1.40625,0 2.79785,-0.27832 1.40625,-0.278321 2.46094,-0.717774 l 0,-5.34668 -5.84472,0 0,-2.548828 8.71582,0 0,9.360352 z"
       style="font-size:30px;fill:#ffffff"
       id="path3668" />
    <path
       d="m -80.024414,44.095713 q 1.333008,1.464844 2.036133,3.588868 0.717773,2.124023 0.717773,4.819335 0,2.695313 -0.732422,4.833985 -0.717773,2.124023 -2.021484,3.544922 -1.347656,1.479492 -3.193359,2.226562 -1.831055,0.747071 -4.189454,0.747071 -2.299804,0 -4.189453,-0.761719 -1.875,-0.761719 -3.193359,-2.211914 -1.318359,-1.450196 -2.036133,-3.559571 -0.703125,-2.109375 -0.703125,-4.819336 0,-2.666015 0.703125,-4.77539 0.703125,-2.124024 2.050781,-3.632813 1.289063,-1.435547 3.19336,-2.197265 1.918945,-0.761719 4.174804,-0.761719 2.34375,0 4.204102,0.776367 1.875,0.761719 3.178711,2.182617 z m -0.263672,8.408203 q 0,-4.248046 -1.904297,-6.547851 -1.904297,-2.314453 -5.200195,-2.314453 -3.325195,0 -5.229492,2.314453 -1.889649,2.299805 -1.889649,6.547851 0,4.291993 1.933594,6.577149 1.933594,2.270508 5.185547,2.270508 3.251953,0 5.170898,-2.270508 1.933594,-2.285156 1.933594,-6.577149 z m -2.651367,-13.666992 -2.915039,0 0,-2.856445 2.915039,0 0,2.856445 z m -6.049805,0 -2.915039,0 0,-2.856445 2.915039,0 0,2.856445 z"
       style="font-size:30px;fill:#ffffff"
       id="path3670" />
    <path
       d="m -56.777344,57.176768 q 0,1.274414 -0.600586,2.519531 -0.585937,1.245117 -1.655273,2.109375 -1.171875,0.9375 -2.739258,1.464844 -1.552734,0.527344 -3.75,0.527344 -2.358398,0 -4.248047,-0.439453 -1.875,-0.439453 -3.823242,-1.303711 l 0,-3.632813 0.205078,0 q 1.655274,1.376953 3.823242,2.124024 2.167969,0.74707 4.072266,0.74707 2.695312,0 4.189453,-1.010742 1.508789,-1.010742 1.508789,-2.695313 0,-1.450195 -0.717773,-2.138672 -0.703125,-0.688476 -2.153321,-1.069336 -1.098632,-0.292968 -2.387695,-0.483398 -1.274414,-0.19043 -2.709961,-0.483398 -2.90039,-0.615235 -4.30664,-2.094727 -1.391602,-1.494141 -1.391602,-3.881836 0,-2.739258 2.314453,-4.482422 2.314453,-1.757812 5.874024,-1.757812 2.299804,0 4.21875,0.439453 1.918945,0.439453 3.398437,1.083984 l 0,3.427735 -0.205078,0 q -1.245117,-1.054688 -3.28125,-1.743164 -2.021484,-0.703125 -4.145508,-0.703125 -2.329101,0 -3.75,0.966796 -1.40625,0.966797 -1.40625,2.490235 0,1.362304 0.703125,2.138672 0.703125,0.776367 2.475586,1.186523 0.9375,0.205078 2.666016,0.498047 1.728515,0.292969 2.929687,0.600586 2.431641,0.644531 3.66211,1.948242 1.230468,1.303711 1.230468,3.647461 z"
       style="font-size:30px;fill:#ffffff"
       id="path3672" />
    <path
       d="m -36.5625,44.168956 -7.792969,0 0,19.233398 -2.90039,0 0,-19.233398 -7.792969,0 0,-2.578125 18.486328,0 0,2.578125 z"
       style="font-size:30px;fill:#ffffff"
       id="path3674" />
    <path
       d="m -19.233398,63.402354 -14.370118,0 0,-21.811523 14.370118,0 0,2.578125 -11.469727,0 0,5.976562 11.469727,0 0,2.578125 -11.469727,0 0,8.100586 11.469727,0 0,2.578125 z"
       style="font-size:30px;fill:#ffffff"
       id="path3676" />
    <path
       d="m 3.4277344,63.402354 -3.76464846,0 -7.29492184,-8.671875 -4.0869141,0 0,8.671875 -2.900391,0 0,-21.811523 6.1083988,0 q 1.9775391,0 3.2958985,0.263671 1.3183593,0.249024 2.3730468,0.908204 1.1865235,0.74707 1.84570315,1.889648 0.67382812,1.12793 0.67382812,2.871094 0,2.358398 -1.18652347,3.955078 -1.1865234,1.582031 -3.2666015,2.387695 l 8.203125,9.536133 z M -3.3544922,47.728526 q 0,-0.9375 -0.3369141,-1.655274 -0.3222656,-0.732421 -1.0839843,-1.230468 -0.6298828,-0.424805 -1.4941406,-0.585938 -0.8642579,-0.175781 -2.0361329,-0.175781 l -3.4130859,0 0,8.232422 2.9296875,0 q 1.3769531,0 2.4023438,-0.234375 1.0253906,-0.249024 1.743164,-0.908203 0.6591797,-0.615235 0.9667969,-1.40625 0.3222656,-0.805664 0.3222656,-2.036133 z"
       style="font-size:30px;fill:#ffffff"
       id="path3678" />
    <path
       d="m 24.433594,61.791026 q -1.78711,0.820312 -3.911133,1.435547 -2.109375,0.600586 -4.086914,0.600586 -2.548828,0 -4.672852,-0.703125 Q 9.6386719,62.420909 8.1445313,61.014659 6.6357422,59.59376 5.8154297,57.469737 4.9951172,55.331065 4.9951172,52.47462 q 0,-5.229493 3.046875,-8.247071 3.0615238,-3.032226 8.3935548,-3.032226 1.860351,0 3.793945,0.454101 1.948242,0.439453 4.189453,1.508789 l 0,3.442383 -0.263672,0 q -0.454101,-0.351562 -1.318359,-0.922851 -0.864258,-0.571289 -1.699219,-0.952149 -1.010742,-0.454101 -2.299804,-0.74707 -1.274414,-0.307617 -2.900391,-0.307617 -3.662109,0 -5.800781,2.358398 -2.1240237,2.34375 -2.1240237,6.357422 0,4.233398 2.2265627,6.591797 2.226562,2.34375 6.064453,2.34375 1.40625,0 2.797851,-0.27832 1.40625,-0.278321 2.460938,-0.717774 l 0,-5.34668 -5.844727,0 0,-2.548828 8.715821,0 0,9.360352 z"
       style="font-size:30px;fill:#ffffff"
       id="path3680" />
    <path
       d="m 43.87207,63.402354 -14.370117,0 0,-21.811523 14.370117,0 0,2.578125 -11.469726,0 0,5.976562 11.469726,0 0,2.578125 -11.469726,0 0,8.100586 11.469726,0 0,2.578125 z"
       style="font-size:30px;fill:#ffffff"
       id="path3682" />
    <path
       d="m 55.678711,69.144541 -7.617188,0 0,-2.094726 5.06836,0 0,-24.345703 -5.06836,0 0,-2.094727 7.617188,0 0,28.535156 z"
       style="font-size:30px;fill:#ffffff"
       id="path3684" />
  </g>
  <g
     transform="translate(220.93286,5.738516)"
     style="color:#000000;font-style:normal;font-weight:normal;font-size:16.25px;line-height:125%;font-family:sans-serif;letter-spacing:0px;word-spacing:0px;clip-rule:nonzero;display:inline;overflow:visible;visibility:visible;opacity:1;isolation:auto;mix-blend-mode:normal;color-interpolation:sRGB;color-interpolation-filters:linearRGB;solid-color:#000000;solid-opacity:1;fill:#000000;fill-opacity:1;fill-rule:nonzero;stroke:none;stroke-width:1px;stroke-linecap:butt;stroke-linejoin:miter;stroke-miterlimit:10;stroke-dasharray:none;stroke-dashoffset:0;stroke-opacity:1;color-rendering:auto;image-rendering:auto;shape-rendering:auto;text-rendering:auto;enable-background:accumulate"
     id="flowRoot3427">
    <path
       d="m -170.48242,152.806 -5.07813,0 0,-19.02344 5.07813,0 0,1.39648 -3.37891,0 0,16.23047 3.37891,0 0,1.39649 z"
       style="color:#000000;font-size:20px;clip-rule:nonzero;display:inline;overflow:visible;visibility:visible;isolation:auto;mix-blend-mode:normal;color-interpolation:sRGB;color-interpolation-filters:linearRGB;solid-color:#000000;solid-opacity:1;fill:#000000;fill-opacity:1;fill-rule:nonzero;stroke:none;stroke-width:1px;stroke-linecap:butt;stroke-linejoin:miter;stroke-miterlimit:10;stroke-dasharray:none;stroke-dashoffset:0;stroke-opacity:1;color-rendering:auto;image-rendering:auto;shape-rendering:auto;text-rendering:auto;enable-background:accumulate"
       id="path3649" />
    <path
       d="m -157.25977,148.97787 -9.58007,0 0,-14.54101 9.58007,0 0,1.71875 -7.64648,0 0,3.98437 7.64648,0 0,1.71875 -7.64648,0 0,5.40039 7.64648,0 0,1.71875 z"
       style="color:#000000;font-size:20px;clip-rule:nonzero;display:inline;overflow:visible;visibility:visible;isolation:auto;mix-blend-mode:normal;color-interpolation:sRGB;color-interpolation-filters:linearRGB;solid-color:#000000;solid-opacity:1;fill:#000000;fill-opacity:1;fill-rule:nonzero;stroke:none;stroke-width:1px;stroke-linecap:butt;stroke-linejoin:miter;stroke-miterlimit:10;stroke-dasharray:none;stroke-dashoffset:0;stroke-opacity:1;color-rendering:auto;image-rendering:auto;shape-rendering:auto;text-rendering:auto;enable-background:accumulate"
       id="path3651" />
    <path
       d="m -143.8125,136.15561 -5.19531,0 0,12.82226 -1.9336,0 0,-12.82226 -5.19531,0 0,-1.71875 12.32422,0 0,1.71875 z"
       style="color:#000000;font-size:20px;clip-rule:nonzero;display:inline;overflow:visible;visibility:visible;isolation:auto;mix-blend-mode:normal;color-interpolation:sRGB;color-interpolation-filters:linearRGB;solid-color:#000000;solid-opacity:1;fill:#000000;fill-opacity:1;fill-rule:nonzero;stroke:none;stroke-width:1px;stroke-linecap:butt;stroke-linejoin:miter;stroke-miterlimit:10;stroke-dasharray:none;stroke-dashoffset:0;stroke-opacity:1;color-rendering:auto;image-rendering:auto;shape-rendering:auto;text-rendering:auto;enable-background:accumulate"
       id="path3653" />
    <path
       d="m -136.71289,148.97787 -5.74219,0 0,-1.48437 1.9043,0 0,-11.57227 -1.9043,0 0,-1.48437 5.74219,0 0,1.48437 -1.9043,0 0,11.57227 1.9043,0 0,1.48437 z m -1.83594,-16.37695 -2.07031,0 0,-1.9043 2.07031,0 0,1.9043 z"
       style="color:#000000;font-size:20px;clip-rule:nonzero;display:inline;overflow:visible;visibility:visible;isolation:auto;mix-blend-mode:normal;color-interpolation:sRGB;color-interpolation-filters:linearRGB;solid-color:#000000;solid-opacity:1;fill:#000000;fill-opacity:1;fill-rule:nonzero;stroke:none;stroke-width:1px;stroke-linecap:butt;stroke-linejoin:miter;stroke-miterlimit:10;stroke-dasharray:none;stroke-dashoffset:0;stroke-opacity:1;color-rendering:auto;image-rendering:auto;shape-rendering:auto;text-rendering:auto;enable-background:accumulate"
       id="path3655" />
    <path
       d="m -121.71289,148.97787 -2.50977,0 -5.75195,-6.47461 -1.44531,1.54297 0,4.93164 -1.9336,0 0,-14.54101 1.9336,0 0,7.58789 7.06054,-7.58789 2.34375,0 -6.49414,6.83593 6.79688,7.70508 z"
       style="color:#000000;font-size:20px;clip-rule:nonzero;display:inline;overflow:visible;visibility:visible;isolation:auto;mix-blend-mode:normal;color-interpolation:sRGB;color-interpolation-filters:linearRGB;solid-color:#000000;solid-opacity:1;fill:#000000;fill-opacity:1;fill-rule:nonzero;stroke:none;stroke-width:1px;stroke-linecap:butt;stroke-linejoin:miter;stroke-miterlimit:10;stroke-dasharray:none;stroke-dashoffset:0;stroke-opacity:1;color-rendering:auto;image-rendering:auto;shape-rendering:auto;text-rendering:auto;enable-background:accumulate"
       id="path3657" />
    <path
       d="m -109.95508,148.97787 -9.58008,0 0,-14.54101 9.58008,0 0,1.71875 -7.64648,0 0,3.98437 7.64648,0 0,1.71875 -7.64648,0 0,5.40039 7.64648,0 0,1.71875 z"
       style="color:#000000;font-size:20px;clip-rule:nonzero;display:inline;overflow:visible;visibility:visible;isolation:auto;mix-blend-mode:normal;color-interpolation:sRGB;color-interpolation-filters:linearRGB;solid-color:#000000;solid-opacity:1;fill:#000000;fill-opacity:1;fill-rule:nonzero;stroke:none;stroke-width:1px;stroke-linecap:butt;stroke-linejoin:miter;stroke-miterlimit:10;stroke-dasharray:none;stroke-dashoffset:0;stroke-opacity:1;color-rendering:auto;image-rendering:auto;shape-rendering:auto;text-rendering:auto;enable-background:accumulate"
       id="path3659" />
    <path
       d="m -96.507812,136.15561 -5.195318,0 0,12.82226 -1.93359,0 0,-12.82226 -5.19531,0 0,-1.71875 12.324218,0 0,1.71875 z"
       style="color:#000000;font-size:20px;clip-rule:nonzero;display:inline;overflow:visible;visibility:visible;isolation:auto;mix-blend-mode:normal;color-interpolation:sRGB;color-interpolation-filters:linearRGB;solid-color:#000000;solid-opacity:1;fill:#000000;fill-opacity:1;fill-rule:nonzero;stroke:none;stroke-width:1px;stroke-linecap:butt;stroke-linejoin:miter;stroke-miterlimit:10;stroke-dasharray:none;stroke-dashoffset:0;stroke-opacity:1;color-rendering:auto;image-rendering:auto;shape-rendering:auto;text-rendering:auto;enable-background:accumulate"
       id="path3661" />
    <path
       d="m -89.740234,152.806 -5.078125,0 0,-1.39649 3.378906,0 0,-16.23047 -3.378906,0 0,-1.39648 5.078125,0 0,19.02344 z"
       style="color:#000000;font-size:20px;clip-rule:nonzero;display:inline;overflow:visible;visibility:visible;isolation:auto;mix-blend-mode:normal;color-interpolation:sRGB;color-interpolation-filters:linearRGB;solid-color:#000000;solid-opacity:1;fill:#000000;fill-opacity:1;fill-rule:nonzero;stroke:none;stroke-width:1px;stroke-linecap:butt;stroke-linejoin:miter;stroke-miterlimit:10;stroke-dasharray:none;stroke-dashoffset:0;stroke-opacity:1;color-rendering:auto;image-rendering:auto;shape-rendering:auto;text-rendering:auto;enable-background:accumulate"
       id="path3663" />
  </g>
  <g
     transform="translate(220.93286,83.738519)"
     style="font-style:normal;font-weight:normal;font-size:16.25px;line-height:125%;font-family:sans-serif;letter-spacing:0px;word-spacing:0px;fill:#000000;fill-opacity:1;stroke:none;stroke-width:1px;stroke-linecap:butt;stroke-linejoin:miter;stroke-opacity:1"
     id="flowRoot3427-0">
    <path
       d="m -170.48242,152.806 -5.07813,0 0,-19.02344 5.07813,0 0,1.39648 -3.37891,0 0,16.23047 3.37891,0 0,1.39649 z"
       style="font-size:20px"
       id="path3598" />
    <path
       d="m -157.25977,148.97787 -9.58007,0 0,-14.54101 9.58007,0 0,1.71875 -7.64648,0 0,3.98437 7.64648,0 0,1.71875 -7.64648,0 0,5.40039 7.64648,0 0,1.71875 z"
       style="font-size:20px"
       id="path3600" />
    <path
       d="m -143.8125,136.15561 -5.19531,0 0,12.82226 -1.9336,0 0,-12.82226 -5.19531,0 0,-1.71875 12.32422,0 0,1.71875 z"
       style="font-size:20px"
       id="path3602" />
    <path
       d="m -136.71289,148.97787 -5.74219,0 0,-1.48437 1.9043,0 0,-11.57227 -1.9043,0 0,-1.48437 5.74219,0 0,1.48437 -1.9043,0 0,11.57227 1.9043,0 0,1.48437 z m -1.83594,-16.37695 -2.07031,0 0,-1.9043 2.07031,0 0,1.9043 z"
       style="font-size:20px"
       id="path3604" />
    <path
       d="m -121.71289,148.97787 -2.50977,0 -5.75195,-6.47461 -1.44531,1.54297 0,4.93164 -1.9336,0 0,-14.54101 1.9336,0 0,7.58789 7.06054,-7.58789 2.34375,0 -6.49414,6.83593 6.79688,7.70508 z"
       style="font-size:20px"
       id="path3606" />
    <path
       d="m -109.95508,148.97787 -9.58008,0 0,-14.54101 9.58008,0 0,1.71875 -7.64648,0 0,3.98437 7.64648,0 0,1.71875 -7.64648,0 0,5.40039 7.64648,0 0,1.71875 z"
       style="font-size:20px"
       id="path3608" />
    <path
       d="m -96.507812,136.15561 -5.195318,0 0,12.82226 -1.93359,0 0,-12.82226 -5.19531,0 0,-1.71875 12.324218,0 0,1.71875 z"
       style="font-size:20px"
       id="path3610" />
    <path
       d="m -89.740234,152.806 -5.078125,0 0,-1.39649 3.378906,0 0,-16.23047 -3.378906,0 0,-1.39648 5.078125,0 0,19.02344 z"
       style="font-size:20px"
       id="path3612" />
  </g>
  <g
     transform="translate(220.93286,151.73852)"
     style="font-style:normal;font-weight:normal;font-size:16.25px;line-height:125%;font-family:sans-serif;letter-spacing:0px;word-spacing:0px;fill:#000000;fill-opacity:1;stroke:none;stroke-width:1px;stroke-linecap:butt;stroke-linejoin:miter;stroke-opacity:1"
     id="flowRoot3427-0-1">
    <path
       d="m -170.48242,152.806 -5.07813,0 0,-19.02344 5.07813,0 0,1.39648 -3.37891,0 0,16.23047 3.37891,0 0,1.39649 z"
       style="font-size:20px"
       id="path3581" />
    <path
       d="m -157.25977,148.97787 -9.58007,0 0,-14.54101 9.58007,0 0,1.71875 -7.64648,0 0,3.98437 7.64648,0 0,1.71875 -7.64648,0 0,5.40039 7.64648,0 0,1.71875 z"
       style="font-size:20px"
       id="path3583" />
    <path
       d="m -143.8125,136.15561 -5.19531,0 0,12.82226 -1.9336,0 0,-12.82226 -5.19531,0 0,-1.71875 12.32422,0 0,1.71875 z"
       style="font-size:20px"
       id="path3585" />
    <path
       d="m -136.71289,148.97787 -5.74219,0 0,-1.48437 1.9043,0 0,-11.57227 -1.9043,0 0,-1.48437 5.74219,0 0,1.48437 -1.9043,0 0,11.57227 1.9043,0 0,1.48437 z m -1.83594,-16.37695 -2.07031,0 0,-1.9043 2.07031,0 0,1.9043 z"
       style="font-size:20px"
       id="path3587" />
    <path
       d="m -121.71289,148.97787 -2.50977,0 -5.75195,-6.47461 -1.44531,1.54297 0,4.93164 -1.9336,0 0,-14.54101 1.9336,0 0,7.58789 7.06054,-7.58789 2.34375,0 -6.49414,6.83593 6.79688,7.70508 z"
       style="font-size:20px"
       id="path3589" />
    <path
       d="m -109.95508,148.97787 -9.58008,0 0,-14.54101 9.58008,0 0,1.71875 -7.64648,0 0,3.98437 7.64648,0 0,1.71875 -7.64648,0 0,5.40039 7.64648,0 0,1.71875 z"
       style="font-size:20px"
       id="path3591" />
    <path
       d="m -96.507812,136.15561 -5.195318,0 0,12.82226 -1.93359,0 0,-12.82226 -5.19531,0 0,-1.71875 12.324218,0 0,1.71875 z"
       style="font-size:20px"
       id="path3593" />
    <path
       d="m -89.740234,152.806 -5.078125,0 0,-1.39649 3.378906,0 0,-16.23047 -3.378906,0 0,-1.39648 5.078125,0 0,19.02344 z"
       style="font-size:20px"
       id="path3595" />
  </g>
  <g
     transform="translate(342.93286,5.7385186)"
     style="color:#000000;font-style:normal;font-weight:normal;font-size:16.25px;line-height:125%;font-family:sans-serif;letter-spacing:0px;word-spacing:0px;clip-rule:nonzero;display:inline;overflow:visible;visibility:visible;opacity:1;isolation:auto;mix-blend-mode:normal;color-interpolation:sRGB;color-interpolation-filters:linearRGB;solid-color:#000000;solid-opacity:1;fill:#000000;fill-opacity:1;fill-rule:nonzero;stroke:none;stroke-width:1px;stroke-linecap:butt;stroke-linejoin:miter;stroke-miterlimit:10;stroke-dasharray:none;stroke-dashoffset:0;stroke-opacity:1;color-rendering:auto;image-rendering:auto;shape-rendering:auto;text-rendering:auto;enable-background:accumulate"
     id="flowRoot3427-4">
    <path
       d="m -170.48242,152.806 -5.07813,0 0,-19.02344 5.07813,0 0,1.39648 -3.37891,0 0,16.23047 3.37891,0 0,1.39649 z"
       style="color:#000000;font-size:20px;clip-rule:nonzero;display:inline;overflow:visible;visibility:visible;isolation:auto;mix-blend-mode:normal;color-interpolation:sRGB;color-interpolation-filters:linearRGB;solid-color:#000000;solid-opacity:1;fill:#000000;fill-opacity:1;fill-rule:nonzero;stroke:none;stroke-width:1px;stroke-linecap:butt;stroke-linejoin:miter;stroke-miterlimit:10;stroke-dasharray:none;stroke-dashoffset:0;stroke-opacity:1;color-rendering:auto;image-rendering:auto;shape-rendering:auto;text-rendering:auto;enable-background:accumulate"
       id="path3632" />
    <path
       d="m -157.25977,148.97787 -9.58007,0 0,-14.54101 9.58007,0 0,1.71875 -7.64648,0 0,3.98437 7.64648,0 0,1.71875 -7.64648,0 0,5.40039 7.64648,0 0,1.71875 z"
       style="color:#000000;font-size:20px;clip-rule:nonzero;display:inline;overflow:visible;visibility:visible;isolation:auto;mix-blend-mode:normal;color-interpolation:sRGB;color-interpolation-filters:linearRGB;solid-color:#000000;solid-opacity:1;fill:#000000;fill-opacity:1;fill-rule:nonzero;stroke:none;stroke-width:1px;stroke-linecap:butt;stroke-linejoin:miter;stroke-miterlimit:10;stroke-dasharray:none;stroke-dashoffset:0;stroke-opacity:1;color-rendering:auto;image-rendering:auto;shape-rendering:auto;text-rendering:auto;enable-background:accumulate"
       id="path3634" />
    <path
       d="m -143.8125,136.15561 -5.19531,0 0,12.82226 -1.9336,0 0,-12.82226 -5.19531,0 0,-1.71875 12.32422,0 0,1.71875 z"
       style="color:#000000;font-size:20px;clip-rule:nonzero;display:inline;overflow:visible;visibility:visible;isolation:auto;mix-blend-mode:normal;color-interpolation:sRGB;color-interpolation-filters:linearRGB;solid-color:#000000;solid-opacity:1;fill:#000000;fill-opacity:1;fill-rule:nonzero;stroke:none;stroke-width:1px;stroke-linecap:butt;stroke-linejoin:miter;stroke-miterlimit:10;stroke-dasharray:none;stroke-dashoffset:0;stroke-opacity:1;color-rendering:auto;image-rendering:auto;shape-rendering:auto;text-rendering:auto;enable-background:accumulate"
       id="path3636" />
    <path
       d="m -136.71289,148.97787 -5.74219,0 0,-1.48437 1.9043,0 0,-11.57227 -1.9043,0 0,-1.48437 5.74219,0 0,1.48437 -1.9043,0 0,11.57227 1.9043,0 0,1.48437 z m -1.83594,-16.37695 -2.07031,0 0,-1.9043 2.07031,0 0,1.9043 z"
       style="color:#000000;font-size:20px;clip-rule:nonzero;display:inline;overflow:visible;visibility:visible;isolation:auto;mix-blend-mode:normal;color-interpolation:sRGB;color-interpolation-filters:linearRGB;solid-color:#000000;solid-opacity:1;fill:#000000;fill-opacity:1;fill-rule:nonzero;stroke:none;stroke-width:1px;stroke-linecap:butt;stroke-linejoin:miter;stroke-miterlimit:10;stroke-dasharray:none;stroke-dashoffset:0;stroke-opacity:1;color-rendering:auto;image-rendering:auto;shape-rendering:auto;text-rendering:auto;enable-background:accumulate"
       id="path3638" />
    <path
       d="m -121.71289,148.97787 -2.50977,0 -5.75195,-6.47461 -1.44531,1.54297 0,4.93164 -1.9336,0 0,-14.54101 1.9336,0 0,7.58789 7.06054,-7.58789 2.34375,0 -6.49414,6.83593 6.79688,7.70508 z"
       style="color:#000000;font-size:20px;clip-rule:nonzero;display:inline;overflow:visible;visibility:visible;isolation:auto;mix-blend-mode:normal;color-interpolation:sRGB;color-interpolation-filters:linearRGB;solid-color:#000000;solid-opacity:1;fill:#000000;fill-opacity:1;fill-rule:nonzero;stroke:none;stroke-width:1px;stroke-linecap:butt;stroke-linejoin:miter;stroke-miterlimit:10;stroke-dasharray:none;stroke-dashoffset:0;stroke-opacity:1;color-rendering:auto;image-rendering:auto;shape-rendering:auto;text-rendering:auto;enable-background:accumulate"
       id="path3640" />
    <path
       d="m -109.95508,148.97787 -9.58008,0 0,-14.54101 9.58008,0 0,1.71875 -7.64648,0 0,3.98437 7.64648,0 0,1.71875 -7.64648,0 0,5.40039 7.64648,0 0,1.71875 z"
       style="color:#000000;font-size:20px;clip-rule:nonzero;display:inline;overflow:visible;visibility:visible;isolation:auto;mix-blend-mode:normal;color-interpolation:sRGB;color-interpolation-filters:linearRGB;solid-color:#000000;solid-opacity:1;fill:#000000;fill-opacity:1;fill-rule:nonzero;stroke:none;stroke-width:1px;stroke-linecap:butt;stroke-linejoin:miter;stroke-miterlimit:10;stroke-dasharray:none;stroke-dashoffset:0;stroke-opacity:1;color-rendering:auto;image-rendering:auto;shape-rendering:auto;text-rendering:auto;enable-background:accumulate"
       id="path3642" />
    <path
       d="m -96.507812,136.15561 -5.195318,0 0,12.82226 -1.93359,0 0,-12.82226 -5.19531,0 0,-1.71875 12.324218,0 0,1.71875 z"
       style="color:#000000;font-size:20px;clip-rule:nonzero;display:inline;overflow:visible;visibility:visible;isolation:auto;mix-blend-mode:normal;color-interpolation:sRGB;color-interpolation-filters:linearRGB;solid-color:#000000;solid-opacity:1;fill:#000000;fill-opacity:1;fill-rule:nonzero;stroke:none;stroke-width:1px;stroke-linecap:butt;stroke-linejoin:miter;stroke-miterlimit:10;stroke-dasharray:none;stroke-dashoffset:0;stroke-opacity:1;color-rendering:auto;image-rendering:auto;shape-rendering:auto;text-rendering:auto;enable-background:accumulate"
       id="path3644" />
    <path
       d="m -89.740234,152.806 -5.078125,0 0,-1.39649 3.378906,0 0,-16.23047 -3.378906,0 0,-1.39648 5.078125,0 0,19.02344 z"
       style="color:#000000;font-size:20px;clip-rule:nonzero;display:inline;overflow:visible;visibility:visible;isolation:auto;mix-blend-mode:normal;color-interpolation:sRGB;color-interpolation-filters:linearRGB;solid-color:#000000;solid-opacity:1;fill:#000000;fill-opacity:1;fill-rule:nonzero;stroke:none;stroke-width:1px;stroke-linecap:butt;stroke-linejoin:miter;stroke-miterlimit:10;stroke-dasharray:none;stroke-dashoffset:0;stroke-opacity:1;color-rendering:auto;image-rendering:auto;shape-rendering:auto;text-rendering:auto;enable-background:accumulate"
       id="path3646" />
  </g>
  <g
     transform="translate(342.93286,83.738521)"
     style="font-style:normal;font-weight:normal;font-size:16.25px;line-height:125%;font-family:sans-serif;letter-spacing:0px;word-spacing:0px;fill:#000000;fill-opacity:1;stroke:none;stroke-width:1px;stroke-linecap:butt;stroke-linejoin:miter;stroke-opacity:1"
     id="flowRoot3427-0-17">
    <path
       d="m -170.48242,152.806 -5.07813,0 0,-19.02344 5.07813,0 0,1.39648 -3.37891,0 0,16.23047 3.37891,0 0,1.39649 z"
       style="font-size:20px"
       id="path3615" />
    <path
       d="m -157.25977,148.97787 -9.58007,0 0,-14.54101 9.58007,0 0,1.71875 -7.64648,0 0,3.98437 7.64648,0 0,1.71875 -7.64648,0 0,5.40039 7.64648,0 0,1.71875 z"
       style="font-size:20px"
       id="path3617" />
    <path
       d="m -143.8125,136.15561 -5.19531,0 0,12.82226 -1.9336,0 0,-12.82226 -5.19531,0 0,-1.71875 12.32422,0 0,1.71875 z"
       style="font-size:20px"
       id="path3619" />
    <path
       d="m -136.71289,148.97787 -5.74219,0 0,-1.48437 1.9043,0 0,-11.57227 -1.9043,0 0,-1.48437 5.74219,0 0,1.48437 -1.9043,0 0,11.57227 1.9043,0 0,1.48437 z m -1.83594,-16.37695 -2.07031,0 0,-1.9043 2.07031,0 0,1.9043 z"
       style="font-size:20px"
       id="path3621" />
    <path
       d="m -121.71289,148.97787 -2.50977,0 -5.75195,-6.47461 -1.44531,1.54297 0,4.93164 -1.9336,0 0,-14.54101 1.9336,0 0,7.58789 7.06054,-7.58789 2.34375,0 -6.49414,6.83593 6.79688,7.70508 z"
       style="font-size:20px"
       id="path3623" />
    <path
       d="m -109.95508,148.97787 -9.58008,0 0,-14.54101 9.58008,0 0,1.71875 -7.64648,0 0,3.98437 7.64648,0 0,1.71875 -7.64648,0 0,5.40039 7.64648,0 0,1.71875 z"
       style="font-size:20px"
       id="path3625" />
    <path
       d="m -96.507812,136.15561 -5.195318,0 0,12.82226 -1.93359,0 0,-12.82226 -5.19531,0 0,-1.71875 12.324218,0 0,1.71875 z"
       style="font-size:20px"
       id="path3627" />
    <path
       d="m -89.740234,152.806 -5.078125,0 0,-1.39649 3.378906,0 0,-16.23047 -3.378906,0 0,-1.39648 5.078125,0 0,19.02344 z"
       style="font-size:20px"
       id="path3629" />
  </g>
  <g
     transform="translate(342.93286,151.73852)"
     style="font-style:normal;font-weight:normal;font-size:16.25px;line-height:125%;font-family:sans-serif;letter-spacing:0px;word-spacing:0px;fill:#000000;fill-opacity:1;stroke:none;stroke-width:1px;stroke-linecap:butt;stroke-linejoin:miter;stroke-opacity:1"
     id="flowRoot3427-0-1-0">
    <path
       d="m -170.48242,152.806 -5.07813,0 0,-19.02344 5.07813,0 0,1.39648 -3.37891,0 0,16.23047 3.37891,0 0,1.39649 z"
       style="font-size:20px"
       id="path3564" />
    <path
       d="m -157.25977,148.97787 -9.58007,0 0,-14.54101 9.58007,0 0,1.71875 -7.64648,0 0,3.98437 7.64648,0 0,1.71875 -7.64648,0 0,5.40039 7.64648,0 0,1.71875 z"
       style="font-size:20px"
       id="path3566" />
    <path
       d="m -143.8125,136.15561 -5.19531,0 0,12.82226 -1.9336,0 0,-12.82226 -5.19531,0 0,-1.71875 12.32422,0 0,1.71875 z"
       style="font-size:20px"
       id="path3568" />
    <path
       d="m -136.71289,148.97787 -5.74219,0 0,-1.48437 1.9043,0 0,-11.57227 -1.9043,0 0,-1.48437 5.74219,0 0,1.48437 -1.9043,0 0,11.57227 1.9043,0 0,1.48437 z m -1.83594,-16.37695 -2.07031,0 0,-1.9043 2.07031,0 0,1.9043 z"
       style="font-size:20px"
       id="path3570" />
    <path
       d="m -121.71289,148.97787 -2.50977,0 -5.75195,-6.47461 -1.44531,1.54297 0,4.93164 -1.9336,0 0,-14.54101 1.9336,0 0,7.58789 7.06054,-7.58789 2.34375,0 -6.49414,6.83593 6.79688,7.70508 z"
       style="font-size:20px"
       id="path3572" />
    <path
       d="m -109.95508,148.97787 -9.58008,0 0,-14.54101 9.58008,0 0,1.71875 -7.64648,0 0,3.98437 7.64648,0 0,1.71875 -7.64648,0 0,5.40039 7.64648,0 0,1.71875 z"
       style="font-size:20px"
       id="path3574" />
    <path
       d="m -96.507812,136.15561 -5.195318,0 0,12.82226 -1.93359,0 0,-12.82226 -5.19531,0 0,-1.71875 12.324218,0 0,1.71875 z"
       style="font-size:20px"
       id="path3576" />
    <path
       d="m -89.740234,152.806 -5.078125,0 0,-1.39649 3.378906,0 0,-16.23047 -3.378906,0 0,-1.39648 5.078125,0 0,19.02344 z"
       style="font-size:20px"
       id="path3578" />
  </g>
</svg>
